<svg version="1.1" viewBox="0.0 0.0 1000.0 200.0" fill="none" stroke="none" stroke-linecap="square" stroke-miterlimit="10" xmlns:xlink="http://www.w3.org/1999/xlink" xmlns="http://www.w3.org/2000/svg"><clipPath id="p.0"><path d="m0 0l1000.0 0l0 200.0l-1000.0 0l0 -200.0z" clip-rule="nonzero"/></clipPath><g clip-path="url(#p.0)"><path fill="#000000" fill-opacity="0.0" d="m0 0l1000.0 0l0 200.0l-1000.0 0z" fill-rule="evenodd"/><path fill="#000000" fill-opacity="0.0" d="m153.0211 55.570137l579.8425 0l0 42.015747l-579.8425 0z" fill-rule="evenodd"/><g filter="url(#shadowFilter-p.1)"><use xlink:href="#p.1" transform="matrix(1.0 0.0 0.0 1.0 0.0 4.0)"/></g><defs><filter id="shadowFilter-p.1" filterUnits="userSpaceOnUse"><feGaussianBlur in="SourceAlpha" stdDeviation="2.0" result="blur"/><feComponentTransfer in="blur" color-interpolation-filters="sRGB"><feFuncR type="linear" slope="0" intercept="0.0"/><feFuncG type="linear" slope="0" intercept="0.0"/><feFuncB type="linear" slope="0" intercept="0.0"/><feFuncA type="linear" slope="0.81" intercept="0"/></feComponentTransfer></filter></defs><g id="p.1"><path fill="#000000" fill-opacity="0.0" d="m0 -0.005139108l1000.0 0l0 200.0l-1000.0 0z" fill-rule="evenodd"/><path fill="#4a86e8" d="m11.510925 166.39485l0 -113.015625l25.484375 0l0 43.687496l30.84375 0l0 -43.687496l25.484375 0l0 113.015625l-25.484375 0l0 -47.140625l-30.84375 0l0 47.140625l-25.484375 0z" fill-rule="nonzero"/><path fill="#ff0000" d="m156.75783 168.47298q-10.390625 0 -18.109375 -3.03125q-7.71875 -3.03125 -12.828125 -8.828125q-5.109375 -5.8125 -7.71875 -14.21875q-2.59375 -8.40625 -2.59375 -19.5l0 -69.515625l25.484375 0l0 72.109375q0 6.765625 1.71875 11.453125q1.734375 4.671875 5.203125 7.09375q3.46875 2.421875 8.84375 2.421875q5.375 0 8.921875 -2.421875q3.5625 -2.421875 5.296875 -7.09375q1.734375 -4.6875 1.734375 -11.453125l0 -72.109375l24.609375 0l0 69.515625q0 11.09375 -2.4375 19.5q-2.421875 8.40625 -7.53125 14.21875q-5.109375 5.796875 -12.734375 8.828125q-7.625 3.03125 -17.859375 3.03125z" fill-rule="nonzero"/><path fill="#ffffff" d="m220.12973 166.39485l0 -114.53125l42.96875 0q13.125 0 21.046875 3.484375q7.9375 3.46875 12.421875 10.703121q4.5 7.21875 4.5 15.109375q0 7.34375 -3.984375 13.828125q-3.984375 6.484375 -12.03125 10.46875q10.390625 3.046875 15.96875 10.390625q5.59375 7.34375 5.59375 17.34375q0 8.046875 -3.40625 14.96875q-3.390625 6.90625 -8.390625 10.65625q-5.0 3.75 -12.546875 5.671875q-7.53125 1.90625 -18.46875 1.90625l-43.671875 0zm15.15625 -66.40625l24.765625 0q10.078125 0 14.453125 -1.328125q5.78125 -1.71875 8.703125 -5.703125q2.9375 -3.984375 2.9375 -10.0q0 -5.703125 -2.734375 -10.03125q-2.734375 -4.34375 -7.8125 -5.9375q-5.078125 -1.609375 -17.421875 -1.609375l-22.890625 0l0 34.609375zm0 52.890625l28.515625 0q7.34375 0 10.3125 -0.546875q5.234375 -0.9375 8.75 -3.125q3.515625 -2.1875 5.78125 -6.359375q2.265625 -4.1875 2.265625 -9.65625q0 -6.40625 -3.28125 -11.125q-3.28125 -4.734375 -9.109375 -6.640625q-5.8125 -1.921875 -16.75 -1.921875l-26.484375 0l0 39.375zm92.5 13.515625l0 -114.53125l82.8125 0l0 13.515621l-67.65625 0l0 35.078125l63.359375 0l0 13.4375l-63.359375 0l0 38.984375l70.3125 0l0 13.515625l-85.46875 0zm97.265625 0l0 -14.0625l58.671875 -73.359375q6.25 -7.8125 11.875 -13.59375l-63.90625 0l0 -13.515621l82.03128 0l0 13.515621l-64.296906 79.453125l-6.953125 8.046875l73.12503 0l0 13.515625l-90.546906 0zm102.265656 -55.78125q0 -28.515625 15.3125 -44.640625q15.3125 -16.140621 39.53125 -16.140621q15.859375 0 28.59375 7.578125q12.734375 7.578121 19.40625 21.140621q6.6875 13.546875 6.6875 30.734375q0 17.421875 -7.03125 31.171875q-7.03125 13.75 -19.921875 20.828125q-12.890625 7.0625 -27.8125 7.0625q-16.171875 0 -28.90625 -7.8125q-12.734375 -7.8125 -19.296875 -21.328125q-6.5625 -13.515625 -6.5625 -28.59375zm15.625 0.234375q0 20.703125 11.125 32.625q11.140625 11.90625 27.9375 11.90625q17.109375 0 28.15625 -12.03125q11.0625 -12.03125 11.0625 -34.140625q0 -13.984375 -4.734375 -24.40625q-4.71875 -10.4375 -13.828125 -16.171875q-9.09375 -5.749996 -20.421875 -5.749996q-16.09375 0 -27.703125 11.062496q-11.59375 11.046875 -11.59375 36.90625zm113.671875 55.546875l0 -114.53125l50.78125 0q15.3125 0 23.28125 3.09375q7.96875 3.078125 12.734375 10.890621q4.765625 7.8125 4.765625 17.265625q0 12.1875 -7.890625 20.546875q-7.890625 8.359375 -24.375 10.625q6.015625 2.890625 9.140625 5.703125q6.640625 6.09375 12.578125 15.234375l19.921875 31.171875l-19.0625 0l-15.15625 -23.828125q-6.640625 -10.3125 -10.9375 -15.78125q-4.296875 -5.46875 -7.703125 -7.65625q-3.390625 -2.1875 -6.90625 -3.046875q-2.578125 -0.546875 -8.4375 -0.546875l-17.578125 0l0 50.859375l-15.15625 0zm15.15625 -63.984375l32.578125 0q10.390625 0 16.25 -2.140625q5.859375 -2.15625 8.90625 -6.875q3.046875 -4.734375 3.046875 -10.28125q0 -8.125 -5.90625 -13.359375q-5.890625 -5.234375 -18.625 -5.234375l-36.25 0l0 37.890625zm153.75 19.0625l0 -13.4375l48.515625 -0.078125l0 42.5q-11.171875 8.90625 -23.046875 13.40625q-11.875 4.484375 -24.375 4.484375q-16.875 0 -30.671875 -7.21875q-13.78125 -7.234375 -20.8125 -20.90625q-7.03125 -13.671875 -7.03125 -30.546875q0 -16.71875 6.984375 -31.203125q7.0 -14.499996 20.125 -21.531246q13.125 -7.03125 30.234375 -7.03125q12.421875 0 22.453125 4.03125q10.046875 4.015625 15.75 11.203121q5.703125 7.1875 8.671875 18.75l-13.671875 3.75q-2.578125 -8.75 -6.40625 -13.75q-3.828125 -5.0 -10.9375 -8.0q-7.109375 -3.0156212 -15.78125 -3.0156212q-10.390625 0 -17.96875 3.1718712q-7.578125 3.15625 -12.234375 8.3125q-4.640625 5.15625 -7.21875 11.328125q-4.375 10.625 -4.375 23.046875q0 15.3125 5.265625 25.625q5.28125 10.3125 15.359375 15.3125q10.078125 5.0 21.40625 5.0q9.84375 0 19.21875 -3.78125q9.375 -3.796875 14.21875 -8.09375l0 -21.328125l-33.671875 0zm70.859375 44.921875l0 -114.53125l39.453125 0q13.359375 0 20.390625 1.640625q9.84375 2.265625 16.796875 8.203125q9.0625 7.656246 13.546875 19.578121q4.5 11.90625 4.5 27.21875q0 13.046875 -3.046875 23.125q-3.046875 10.078125 -7.8125 16.6875q-4.765625 6.59375 -10.4375 10.390625q-5.65625 3.78125 -13.671875 5.734375q-8.0 1.953125 -18.390625 1.953125l-41.328125 0zm15.15625 -13.515625l24.453125 0q11.328125 0 17.765625 -2.109375q6.453125 -2.109375 10.28125 -5.9375q5.390625 -5.390625 8.390625 -14.484375q3.015625 -9.109375 3.015625 -22.078125q0 -17.96875 -5.90625 -27.609375q-5.890625 -9.65625 -14.328125 -12.9375q-6.09375 -2.34375 -19.609375 -2.34375l-24.0625 0l0 87.5z" fill-rule="nonzero"/></g></g></svg>